<svg preserveAspectRatio="none" width="100%" height="100%" overflow="visible" style="display: block;" viewBox="0 0 958.257 476.018" fill="none" xmlns="http://www.w3.org/2000/svg">
<g id="Group 2">
<g id="&#231;&#187;&#132; 2" clip-path="url(#clip0_0_806)">
<rect id="&#231;&#159;&#169;&#229;&#189;&#162; 2" x="91.1064" y="98.7577" width="80" height="80" rx="16" transform="rotate(-15 91.1064 98.7577)" fill="var(--fill-0, #E5D3C1)" stroke="var(--stroke-0, #DAC5B1)" stroke-width="1.6"/>
<path id="&#232;&#129;&#148;&#233;&#155;&#134; 1" fill-rule="evenodd" clip-rule="evenodd" d="M122.687 210.126C119.828 199.457 126.159 188.49 136.829 185.631L202.426 168.055C213.095 165.196 224.062 171.527 226.921 182.197L235.559 214.434C238.418 225.103 232.086 236.07 221.417 238.928L194.565 246.123C190.237 247.283 187.669 251.732 188.829 256.06L190.928 263.896C190.928 263.896 190.928 263.897 190.929 263.897C190.929 263.896 190.929 263.897 190.929 263.897L206.872 323.398C209.731 334.067 203.399 345.034 192.73 347.892L93.0461 374.603C82.3768 377.461 71.4101 371.13 68.5513 360.46L57.7844 320.278C54.9255 309.609 61.2572 298.642 71.9265 295.783L121.382 282.532C132.051 279.673 138.383 268.706 135.524 258.037L129.706 236.325C129.706 236.325 129.706 236.325 129.706 236.325C129.706 236.325 129.706 236.325 129.706 236.324L122.687 210.126Z" fill="var(--fill-0, #FD75A9)"/>
<rect id="&#231;&#159;&#169;&#229;&#189;&#162; 3" x="22.5037" y="207.155" width="80" height="80" rx="16" transform="rotate(-15 22.5037 207.155)" fill="var(--fill-0, #E5D3C1)" stroke="var(--stroke-0, #DAC5B1)" stroke-width="1.6"/>
<rect id="&#231;&#159;&#169;&#229;&#189;&#162; 4" x="208.106" y="264.758" width="80" height="80" rx="16" transform="rotate(-15 208.106 264.758)" fill="var(--fill-0, #E5D3C1)" stroke="var(--stroke-0, #DAC5B1)" stroke-width="1.6"/>
<path id="&#232;&#129;&#148;&#233;&#155;&#134; 2" fill-rule="evenodd" clip-rule="evenodd" d="M298.283 229.464C295.424 218.795 301.756 207.828 312.425 204.969L351.062 194.616C361.731 191.758 372.698 198.089 375.557 208.759L380.112 225.759C382.971 236.428 393.938 242.76 404.607 239.901L433.198 232.24C443.868 229.381 454.834 235.713 457.693 246.382L480.767 332.496C483.626 343.165 477.294 354.132 466.625 356.991L427.988 367.343C417.319 370.202 406.352 363.871 403.493 353.201L393.878 317.316C391.019 306.647 380.052 300.315 369.383 303.174L340.792 310.835C330.122 313.694 319.155 307.362 316.297 296.693L314.41 289.651L308.014 265.783L298.283 229.464Z" fill="var(--fill-0, #FDC747)"/>
</g>
<g id="&#231;&#187;&#132; 1" clip-path="url(#clip1_0_806)">
<path id="&#232;&#129;&#148;&#233;&#155;&#134; 3" fill-rule="evenodd" clip-rule="evenodd" d="M840.741 297.526L860.108 302.52C870.803 305.278 877.238 316.185 874.48 326.88L869.885 344.697C867.127 355.393 856.22 361.828 845.525 359.07C834.829 356.312 823.922 362.746 821.164 373.442L818.967 381.963L806.581 429.992L803.585 441.612C800.827 452.308 789.92 458.742 779.224 455.984L731.97 443.798C721.274 441.04 714.84 430.134 717.598 419.438L729.883 371.796C731.593 365.165 738.356 361.176 744.987 362.886C751.618 364.596 758.38 360.606 760.09 353.975L764.186 338.094L773.774 300.911C776.533 290.215 787.439 283.78 798.135 286.539L840.741 297.526Z" fill="var(--fill-0, #4B9FE6)"/>
<rect id="&#231;&#159;&#169;&#229;&#189;&#162; 5" x="582.976" y="237" width="80" height="80" rx="16" transform="rotate(14.4602 582.976 237)" fill="var(--fill-0, #F5E8DA)" stroke="var(--stroke-0, #DAC5B1)" stroke-width="1.6"/>
<rect id="&#231;&#159;&#169;&#229;&#189;&#162; 6" x="680.387" y="256.174" width="80" height="80" rx="16" transform="rotate(14.4602 680.387 256.174)" fill="var(--fill-0, #E5D3C1)" stroke="var(--stroke-0, #DAC5B1)" stroke-width="1.6"/>
<rect id="&#231;&#159;&#169;&#229;&#189;&#162; 7" x="705.976" y="159" width="80" height="80" rx="16" transform="rotate(14.4602 705.976 159)" fill="var(--fill-0, #F5E8DA)" stroke="var(--stroke-0, #DAC5B1)" stroke-width="1.6"/>
<rect id="&#231;&#159;&#169;&#229;&#189;&#162; 10" x="837.977" y="52" width="80" height="80" rx="16" transform="rotate(14.4602 837.977 52)" fill="var(--fill-0, #F5E8DA)" stroke="var(--stroke-0, #DAC5B1)" stroke-width="1.6"/>
<path id="&#232;&#129;&#148;&#233;&#155;&#134; 4" fill-rule="evenodd" clip-rule="evenodd" d="M885.432 160.379L833.53 146.994C822.834 144.236 811.927 150.671 809.169 161.366L795.785 213.269L787.994 243.48C785.236 254.176 791.671 265.083 802.366 267.841L834.902 276.231C845.598 278.989 856.504 272.554 859.263 261.859L862.059 251.013C864.817 240.318 875.724 233.883 886.42 236.641L897.265 239.438C907.961 242.196 918.867 235.761 921.626 225.066L930.016 192.53C932.774 181.834 926.339 170.928 915.643 168.169L885.432 160.379Z" fill="var(--fill-0, #B1CE78)"/>
</g>
<path id="&#232;&#183;&#175;&#229;&#190;&#132;" d="M500.339 176C505.798 176 510.941 180.086 512.567 186.176C514.463 193.314 510.773 200.511 504.381 202.238C503.453 202.491 502.496 202.619 501.535 202.617C496.075 202.617 490.933 198.561 489.312 192.447C487.41 185.322 491.076 178.1 497.498 176.379C498.425 176.133 499.38 176.005 500.339 176Z" fill="var(--fill-0, #E3D1BF)"/>
<path id="&#232;&#183;&#175;&#229;&#190;&#132;_2" d="M530.034 176.463C530.996 176.462 531.953 176.59 532.881 176.843C539.303 178.57 542.963 185.767 541.061 192.904C539.44 198.994 534.298 203.081 528.838 203.081C527.877 203.079 526.92 202.951 525.992 202.701C519.576 200.968 515.91 193.777 517.812 186.634C519.432 180.55 524.575 176.463 530.034 176.463Z" fill="var(--fill-0, #E3D1BF)"/>
<path id="&#232;&#183;&#175;&#229;&#190;&#132;_3" d="M547.848 200.156C551.557 200.063 555.03 201.982 556.943 205.181C559.849 210.242 557.697 216.964 552.159 220.226C550.267 221.335 548.118 221.924 545.928 221.935C542.22 222.026 538.747 220.108 536.833 216.91C533.933 211.843 536.086 205.121 541.617 201.865C543.509 200.755 545.658 200.166 547.848 200.156Z" fill="var(--fill-0, #E3D1BF)"/>
<path id="&#232;&#183;&#175;&#229;&#190;&#132;_4" d="M482.381 200.156C484.57 200.165 486.717 200.755 488.606 201.865C494.168 205.091 496.32 211.813 493.39 216.91C491.477 220.109 488.004 222.028 484.295 221.935C482.115 221.921 479.977 221.332 478.094 220.226C472.533 216.994 470.38 210.272 473.31 205.181C475.219 201.989 478.681 200.072 482.381 200.156Z" fill="var(--fill-0, #E3D1BF)"/>
<g id="&#232;&#183;&#175;&#229;&#190;&#132;_5">
<path d="M536.989 236.125C531.478 240.75 524.652 241.174 515.085 241.174C505.852 241.174 496.691 239.549 493.898 236.125C488.218 229.162 500.585 205 515.085 205" fill="var(--fill-0, #E3D1BF)"/>
<path d="M536.989 236.125C531.478 240.75 524.652 241.174 515.085 241.174C505.852 241.174 496.691 239.549 493.898 236.125C488.218 229.162 500.585 205 515.085 205C529.585 205 542.5 231.5 536.989 236.125Z" fill="var(--fill-0, #E3D1BF)"/>
</g>
</g>
<defs>
<clipPath id="clip0_0_806">
<rect width="410.208" height="346.625" fill="white" transform="translate(0 123.17) rotate(-15)"/>
</clipPath>
<clipPath id="clip1_0_806">
<rect width="324.941" height="405.857" fill="white" transform="translate(643.609 1.8772) rotate(14.4602)"/>
</clipPath>
</defs>
</svg>
